<svg xmlns="http://www.w3.org/2000/svg" width="73" height="72" fill="none" xmlns:v="https://vecta.io/nano"><path fill-rule="evenodd" d="M59.048 13.104c7.26 7.362 11.79 16.641 12.758 26.123.989 9.657-1.824 18.378-7.912 24.548C58.6 69.143 51.411 72 43.371 72a35.42 35.42 0 0 1-3.687-.198c-9.35-.981-18.5-5.576-25.759-12.938C-1.19 43.537-3.365 20.812 9.078 8.194c12.434-12.622 34.852-10.413 49.97 4.91zm-25.52 26.933c5.831 1.62 11.2 3.137 16.152 6.971 3.883 3.008 6.649 6.829 9.446 10.694 1.288 1.779 2.582 3.568 3.995 5.29-1.633-14.333-8.737-26.645-23.097-30.87l-.669-.196c-6.278-1.841-12.011-3.522-17.236-7.877-3.36-2.803-5.833-6.281-8.321-9.78-1.271-1.788-2.546-3.58-3.944-5.291 1.704 14.557 8.995 26.978 23.674 31.059z" fill="#fdd6ba"/></svg>