<svg xmlns="http://www.w3.org/2000/svg" width="72" height="50" fill="none" xmlns:v="https://vecta.io/nano"><path fill-rule="evenodd" d="M4.846 0H9v4.167H4.846V0zM0 19.444h4.154v4.167H0v-4.167zM16.434 4.229h-3.306V0h35.334v35.397c-2.164 1.864-3.562 4.599-3.651 7.659H27.05c-.165-5.647-4.787-10.19-10.448-10.19S6.319 37.409 6.153 43.056H0V29.12h11.77c1.504 0 2.727-1.228 2.727-2.739s-1.223-2.739-2.727-2.739H8.345v-4.229h17.921c1.504 0 2.727-1.229 2.727-2.739s-1.223-2.739-2.727-2.739H0V9.707h16.602c1.504 0 2.727-1.229 2.727-2.739 0-1.459-1.353-2.739-2.895-2.739zm32.72 39.521a6.25 6.25 0 0 1 6.231-6.25 6.25 6.25 0 1 1 0 12.5 6.25 6.25 0 0 1-6.231-6.25zm4.131 2.107h4.201v-4.213h-4.201v4.213zm-.669-40.996h8.447l9.553 14.583h-18V4.861zm0 18.75v9.564a10.59 10.59 0 0 1 2.613-.326c5.719 0 10.388 4.551 10.555 10.206H72V23.611H52.615zm-36 13.889a6.25 6.25 0 1 0 0 12.5 6.25 6.25 0 1 0 0-12.5zm2.1 8.357h-4.2v-4.213h4.2v4.213z" fill="#fdd6ba"/></svg>