<svg xmlns="http://www.w3.org/2000/svg" width="72" height="72" fill="none" xmlns:v="https://vecta.io/nano"><path fill-rule="evenodd" d="M36 23.981a2.38 2.38 0 0 0 .302.019L38 23.98V34.5 39h27.956.755C69.612 39 72 36.63 72 33.75v-7.5c0-2.88-2.388-5.25-5.289-5.25H54.58C63.049 17.708 67 12.327 67 8.067 67 4.347 64.05.003 55.731 0 44.993 0 38.912 7.615 36 14.59 33.087 7.614 27.007 0 16.273 0 7.953 0 5 4.344 5 8.065 5 12.325 8.952 17.708 17.421 21H5.289C2.388 21 0 23.37 0 26.25v7.5C0 36.63 2.388 39 5.289 39h.756H34v-4.5-10.52l1.698.02a2.38 2.38 0 0 0 .302-.019zm3.175-4.497c1.384-4.928 5.56-15.031 16.556-15.031 3.223 0 6.665.946 6.665 3.611 0 1.789-1.556 4.593-5.925 7.1-3.15 1.807-8.62 3.928-17.295 4.32zM34 44H6v22.842C6 69.672 8.391 72 11.297 72H34V44zm32 22.842V44H38v28h22.703C63.609 72 66 69.672 66 66.842zM16.273 4.451c-3.223 0-6.668.95-6.668 3.614 0 3.789 6.855 10.694 23.217 11.421-1.381-4.932-5.556-15.036-16.55-15.036z" fill="#fdd6ba"/></svg>